# Blender 4.1.1
# www.blender.org
mtllib arrow.mtl
o Plane
v 0.173383 -2.447912 -0.021628
v 0.151755 -2.447912 0.000000
v 0.151755 -2.469541 -0.021628
v -0.212986 -2.469541 -0.021628
v -0.212986 -2.447912 0.000000
v -0.234614 -2.447912 -0.021628
v 0.151755 1.833703 -0.021628
v 0.173383 1.808770 0.000000
v 0.190272 1.820192 -0.021628
v -0.212986 1.833703 -0.021628
v -0.251503 1.820192 -0.021628
v -0.234614 1.808770 0.000000
v 0.173383 1.401126 -0.021628
v 0.190272 1.409243 -0.021628
v 0.151755 1.467754 0.000000
v -0.234614 1.401126 -0.021628
v -0.212986 1.467754 0.000000
v -0.251503 1.409243 -0.021628
v -1.234614 1.012075 -0.021628
v -1.212986 1.025966 0.000000
v -1.217726 1.047214 -0.021628
v -1.234614 0.644383 -0.021628
v -1.217726 0.636265 -0.021628
v -1.212986 0.667755 0.000000
v 1.173383 1.012075 -0.021628
v 1.156495 1.047214 -0.021628
v 1.151755 1.025966 0.000000
v 1.173383 0.644383 -0.021628
v 1.151755 0.667755 0.000000
v 1.156495 0.636265 -0.021628
v 0.173383 -2.447912 -0.021628
v 0.151755 -2.469541 -0.021628
v 0.151755 -2.447912 -0.043256
v -0.212986 -2.469541 -0.021628
v -0.234614 -2.447912 -0.021628
v -0.212986 -2.447912 -0.043256
v 0.151755 1.833703 -0.021628
v 0.190272 1.820192 -0.021628
v 0.173383 1.808770 -0.043256
v -0.212986 1.833703 -0.021628
v -0.234614 1.808770 -0.043256
v -0.251503 1.820192 -0.021628
v 0.173383 1.401126 -0.021628
v 0.151755 1.467754 -0.043256
v 0.190272 1.409243 -0.021628
v -0.234614 1.401126 -0.021628
v -0.251503 1.409243 -0.021628
v -0.212986 1.467754 -0.043256
v -1.234614 1.012075 -0.021628
v -1.217726 1.047214 -0.021628
v -1.212986 1.025966 -0.043256
v -1.234614 0.644383 -0.021628
v -1.212986 0.667755 -0.043256
v -1.217726 0.636265 -0.021628
v 1.173383 1.012075 -0.021628
v 1.151755 1.025966 -0.043256
v 1.156495 1.047214 -0.021628
v 1.173383 0.644383 -0.021628
v 1.156495 0.636265 -0.021628
v 1.151755 0.667755 -0.043256
vn -0.0000 -0.0000 1.0000
vn -0.0000 -1.0000 -0.0000
vn -0.3825 0.9240 -0.0000
vn 0.6377 0.7703 -0.0000
vn -0.0000 -0.0000 -1.0000
vn -1.0000 -0.0000 -0.0000
vn -0.0000 1.0000 -0.0000
vn 0.6377 -0.7703 -0.0000
vn -0.3825 -0.9240 -0.0000
vn 0.5773 -0.5774 0.5774
vn -0.5774 -0.5774 0.5774
vn 0.2639 0.7524 0.6035
vn -0.2639 0.7524 0.6035
vn 0.1289 -0.2681 0.9547
vn -0.1288 -0.2681 0.9547
vn -0.7650 0.3677 0.5288
vn -0.2509 -0.5221 0.8151
vn 0.7650 0.3677 0.5288
vn 0.2509 -0.5221 0.8151
vn 0.5773 -0.5774 -0.5774
vn -0.5774 -0.5774 -0.5774
vn 0.2639 0.7524 -0.6035
vn -0.2639 0.7524 -0.6035
vn 0.1288 -0.2681 -0.9547
vn -0.1289 -0.2681 -0.9547
vn -0.7650 0.3677 -0.5288
vn -0.2509 -0.5221 -0.8151
vn 0.7650 0.3677 -0.5288
vn 0.2509 -0.5221 -0.8151
vn 0.7071 -0.0000 0.7071
vn -0.0000 -0.7071 0.7071
vn -0.0000 0.6553 0.7554
vn -0.7071 -0.0000 0.7071
vn 0.4417 -0.5522 0.7071
vn -0.4634 0.5792 0.6706
vn 0.4643 0.5804 0.6691
vn -0.4417 -0.5522 0.7071
vn 0.7071 -0.0000 -0.7071
vn -0.0000 -0.7071 -0.7071
vn -0.0000 0.6553 -0.7554
vn -0.7071 -0.0000 -0.7071
vn 0.4417 -0.5522 -0.7071
vn -0.4634 0.5792 -0.6706
vn 0.4643 0.5804 -0.6691
vn -0.4417 -0.5522 -0.7071
vn 0.6937 -0.7202 -0.0000
vn 0.6791 -0.7340 -0.0000
vn -0.9474 0.3200 -0.0000
vn -0.4853 -0.8743 -0.0000
vn 0.0067 0.0208 -0.9998
vn -0.9080 -0.4190 -0.0000
vn -0.2071 -0.5596 0.8025
vn -0.0067 0.0208 0.9998
vn 1.0000 -0.0000 -0.0000
vn -0.6377 0.7703 -0.0000
vn 0.3825 0.9240 -0.0000
vn 0.3825 -0.9240 -0.0000
vn -0.0156 -0.0189 -0.9997
vn -0.4643 0.5803 0.6691
vn 0.4634 0.5792 0.6706
vn -0.4643 0.5803 -0.6691
vn 0.4634 0.5792 -0.6706
vn 0.8223 -0.5691 -0.0000
vn 0.3471 -0.9378 -0.0000
vn 0.9118 0.4106 -0.0000
vn 0.4758 0.8796 -0.0000
vn -0.4339 -0.9010 -0.0000
vn -0.6791 -0.7340 -0.0000
vn 0.4853 -0.8743 -0.0000
vn -0.4758 0.8796 -0.0000
vt 0.000000 0.910939
vt 0.000000 0.994181
vt 0.000000 0.994206
vt 0.946989 0.000000
vt 0.053011 0.000000
vt 1.000000 1.000000
vt 1.000000 1.000000
vt 0.000000 1.000000
vt 0.000000 1.000000
vt 0.053011 0.914960
vt 1.000000 0.994206
vt 1.000000 0.910939
vt 1.000000 0.994181
vt 1.000000 0.994206
vt 0.053011 0.914960
vt 0.946989 0.005026
vt 0.053011 0.005026
vt 0.000000 0.909528
vt 0.000000 0.994974
vt 1.000000 0.994181
vt 1.000000 0.910939
vt 1.000000 0.899477
vt 1.000000 0.005026
vt 1.000000 0.994974
vt 1.000000 0.909528
vt 1.000000 0.909529
vt 0.053011 1.000000
vt 0.946989 1.000000
vt 0.946989 1.000000
vt 1.000000 0.904502
vt 1.000000 0.904503
vt 1.000000 0.904502
vt 0.000000 0.904503
vt 0.000000 0.904502
vt 0.000000 0.994206
vt 0.946989 0.914960
vt 0.000000 0.005026
vt 0.000000 0.899477
vt 1.000000 0.904503
vt 0.946989 0.000000
vt 0.053011 1.000000
vt 0.946989 0.914960
vt 0.946990 0.914960
s 0
f 15/1/1 27/2/1 8/3/1
f 4/4/2 32/5/2 3/5/2
f 11/6/3 50/7/3 21/6/3
f 9/8/4 57/9/4 38/9/4
f 44/1/5 56/2/5 60/1/5
f 44/10/5 41/11/5 39/3/5
f 48/12/5 51/13/5 41/14/5
f 15/15/1 5/16/1 2/17/1
f 28/18/5 55/19/5 25/19/5
f 20/20/1 17/21/1 12/11/1
f 16/22/6 35/23/6 6/23/6
f 19/24/5 52/25/5 22/26/5
f 7/27/7 40/28/7 10/29/7
f 18/30/8 54/31/8 47/32/8
f 14/33/9 59/34/9 30/34/9
f 8/35/1 17/36/1 15/10/1
f 36/16/5 44/15/5 33/17/5
f 1/37/10 2/17/10 3/5/10
f 4/4/11 5/16/11 6/23/11
f 7/27/12 8/3/12 9/8/12
f 10/29/13 11/6/13 12/14/13
f 13/38/14 14/33/14 15/15/14
f 16/22/15 17/21/15 18/30/15
f 19/24/16 20/20/16 21/6/16
f 22/26/17 23/39/17 24/12/17
f 25/19/18 26/8/18 27/2/18
f 28/18/19 29/1/19 30/34/19
f 31/37/20 32/5/20 33/17/20
f 34/40/21 35/23/21 36/16/21
f 37/41/22 38/9/22 39/3/22
f 40/28/23 41/14/23 42/7/23
f 43/38/24 44/1/24 45/33/24
f 46/22/25 47/32/25 48/42/25
f 49/24/26 50/7/26 51/13/26
f 52/25/27 53/21/27 54/31/27
f 55/19/28 56/2/28 57/9/28
f 58/18/29 59/34/29 60/1/29
f 2/17/30 13/38/30 15/15/30
f 5/16/31 3/5/31 2/17/31
f 8/35/32 10/29/32 12/14/32
f 5/16/33 16/22/33 6/23/33
f 24/12/33 19/24/33 22/26/33
f 24/12/34 18/30/34 17/21/34
f 12/11/35 21/6/35 20/20/35
f 29/1/30 25/19/30 27/2/30
f 8/3/36 26/8/36 9/8/36
f 29/1/37 14/33/37 30/34/37
f 43/38/38 33/17/38 44/15/38
f 34/40/39 33/17/39 32/5/39
f 37/41/40 41/11/40 40/28/40
f 46/22/41 36/16/41 35/23/41
f 49/24/41 53/21/41 52/25/41
f 47/32/42 53/21/42 48/12/42
f 50/7/43 41/14/43 51/13/43
f 55/19/38 60/1/38 56/2/38
f 57/9/44 39/35/44 38/9/44
f 45/33/45 60/1/45 59/34/45
f 32/5/46 1/37/46 3/5/46
f 45/33/47 13/38/47 43/38/47
f 50/7/48 19/24/48 21/6/48
f 23/39/49 52/25/49 54/31/49
f 55/19/7 26/8/7 25/19/7
f 37/41/50 9/8/50 38/9/50
f 35/23/51 4/4/51 6/23/51
f 46/22/52 18/30/52 47/32/52
f 28/18/2 59/34/2 58/18/2
f 10/29/53 42/7/53 11/6/53
f 1/37/54 43/38/54 13/38/54
f 15/1/1 29/1/1 27/2/1
f 4/4/2 34/40/2 32/5/2
f 11/6/55 42/7/55 50/7/55
f 9/8/56 26/8/56 57/9/56
f 44/1/5 39/35/5 56/2/5
f 44/10/5 48/43/5 41/11/5
f 48/12/5 53/21/5 51/13/5
f 15/15/1 17/42/1 5/16/1
f 28/18/5 58/18/5 55/19/5
f 20/20/1 24/12/1 17/21/1
f 16/22/6 46/22/6 35/23/6
f 19/24/5 49/24/5 52/25/5
f 7/27/7 37/41/7 40/28/7
f 18/30/57 23/39/57 54/31/57
f 14/33/58 45/33/58 59/34/58
f 8/35/1 12/14/1 17/36/1
f 36/16/5 48/42/5 44/15/5
f 2/17/30 1/37/30 13/38/30
f 5/16/31 4/4/31 3/5/31
f 8/35/32 7/27/32 10/29/32
f 5/16/33 17/42/33 16/22/33
f 24/12/33 20/20/33 19/24/33
f 24/12/34 23/39/34 18/30/34
f 12/11/59 11/6/59 21/6/59
f 29/1/30 28/18/30 25/19/30
f 8/3/60 27/2/60 26/8/60
f 29/1/37 15/1/37 14/33/37
f 43/38/38 31/37/38 33/17/38
f 34/40/39 36/16/39 33/17/39
f 37/41/40 39/3/40 41/11/40
f 46/22/41 48/42/41 36/16/41
f 49/24/41 51/13/41 53/21/41
f 47/32/42 54/31/42 53/21/42
f 50/7/61 42/7/61 41/14/61
f 55/19/38 58/18/38 60/1/38
f 57/9/62 56/2/62 39/35/62
f 45/33/45 44/1/45 60/1/45
f 32/5/63 31/37/63 1/37/63
f 45/33/64 14/33/64 13/38/64
f 50/7/7 49/24/7 19/24/7
f 23/39/2 22/26/2 52/25/2
f 55/19/65 57/9/65 26/8/65
f 37/41/66 7/27/66 9/8/66
f 35/23/67 34/40/67 4/4/67
f 46/22/68 16/22/68 18/30/68
f 28/18/69 30/34/69 59/34/69
f 10/29/70 40/28/70 42/7/70
f 1/37/54 31/37/54 43/38/54
