# Blender 4.1.1
# www.blender.org
o Circle
v 0.000000 0.000000 -1.000000
v -0.195090 0.000000 -0.980785
v -0.381195 -0.000034 -0.921357
v -0.555570 0.000000 -0.831470
v -0.707107 0.000000 -0.707107
v -0.831470 0.000000 -0.555570
v -0.923880 0.000000 -0.382683
v -0.980785 0.000000 -0.195090
v -1.000000 0.000000 0.000000
v -0.980785 0.000000 0.195090
v -0.923880 0.000000 0.382683
v -0.831470 0.000000 0.555570
v -0.707107 0.000000 0.707107
v -0.555570 0.000000 0.831470
v -0.382683 0.000000 0.923880
v -0.195090 0.000000 0.980785
v 0.000000 0.000000 1.000000
v 0.195090 0.000000 0.980785
v 0.382683 0.000000 0.923880
v 0.555570 0.000000 0.831470
v 0.707107 0.000000 0.707107
v 0.831470 0.000000 0.555570
v 0.923880 0.000000 0.382683
v 0.980785 0.000000 0.195090
v 1.000000 0.000000 0.000000
v 0.980785 0.000000 -0.195090
v 0.923880 0.000000 -0.382683
v 0.831470 0.000000 -0.555570
v 0.707107 0.000000 -0.707107
v 0.555570 0.000000 -0.831470
v 0.382683 0.000000 -0.923880
v 0.195090 0.000000 -0.980785
v 0.000019 0.357941 -0.588415
v -0.114781 0.357941 -0.577108
v -0.224294 0.357921 -0.542138
v -0.326905 0.357941 -0.489244
v -0.416076 0.357941 -0.416063
v -0.489257 0.357941 -0.326892
v -0.543635 0.357941 -0.225157
v -0.577121 0.357941 -0.114768
v -0.588428 0.357941 0.000032
v -0.577121 0.357941 0.114832
v -0.543635 0.357941 0.225221
v -0.489257 0.357941 0.326955
v -0.416076 0.357941 0.416126
v -0.326905 0.357941 0.489307
v -0.225170 0.357941 0.543685
v -0.114781 0.357941 0.577172
v 0.000019 0.357941 0.588478
v 0.114819 0.357941 0.577172
v 0.225208 0.357941 0.543685
v 0.326942 0.357941 0.489307
v 0.416113 0.357941 0.416126
v 0.489294 0.357941 0.326955
v 0.543673 0.357941 0.225221
v 0.577159 0.357941 0.114832
v 0.588465 0.357941 0.000032
v 0.577159 0.357941 -0.114768
v 0.543673 0.357941 -0.225157
v 0.489294 0.357941 -0.326892
v 0.416113 0.357941 -0.416063
v 0.326942 0.357941 -0.489244
v 0.225208 0.357941 -0.543622
v 0.114819 0.357941 -0.577108
v 0.000018 1.614106 -0.588417
v -0.114782 1.614106 -0.577110
v -0.224295 1.614086 -0.542140
v -0.326906 1.614106 -0.489246
v -0.416077 1.614106 -0.416065
v -0.489258 1.614106 -0.326894
v -0.543636 1.614106 -0.225160
v -0.577122 1.614106 -0.114771
v -0.588429 1.614106 0.000029
v -0.577122 1.614106 0.114830
v -0.543636 1.614106 0.225218
v -0.489258 1.614106 0.326953
v -0.416077 1.614106 0.416124
v -0.326906 1.614106 0.489305
v -0.225171 1.614106 0.543683
v -0.114782 1.614106 0.577169
v 0.000018 1.614106 0.588476
v 0.114818 1.614106 0.577169
v 0.225207 1.614106 0.543683
v 0.326941 1.614106 0.489305
v 0.416112 1.614106 0.416124
v 0.489293 1.614106 0.326953
v 0.543672 1.614106 0.225218
v 0.577158 1.614106 0.114830
v 0.588464 1.614106 0.000029
v 0.577158 1.614106 -0.114771
v 0.543672 1.614106 -0.225160
v 0.489293 1.614106 -0.326894
v 0.416112 1.614106 -0.416065
v 0.326941 1.614106 -0.489246
v 0.225207 1.614106 -0.543624
v 0.114818 1.614106 -0.577110
v 0.000003 1.810990 -0.615653
v -0.118041 1.810990 -0.604027
v -0.234452 1.810960 -0.566853
v -0.343680 1.810990 -0.510548
v -0.435332 1.810990 -0.435331
v -0.511897 1.810990 -0.342037
v -0.568790 1.810990 -0.235598
v -0.603824 1.810990 -0.120104
v -0.615654 1.810990 0.000004
v -0.603824 1.810990 0.120113
v -0.568790 1.810990 0.235606
v -0.511897 1.810990 0.342046
v -0.435332 1.810990 0.435340
v -0.342038 1.810989 0.511905
v -0.235599 1.810989 0.568798
v -0.120106 1.810989 0.603832
v 0.000003 1.810989 0.615662
v 0.120112 1.810989 0.603832
v 0.235605 1.810989 0.568798
v 0.342044 1.810989 0.511905
v 0.435339 1.810989 0.435340
v 0.511904 1.810989 0.342045
v 0.568797 1.810989 0.235606
v 0.603831 1.810989 0.120113
v 0.615661 1.810990 0.000004
v 0.603831 1.810990 -0.120104
v 0.568797 1.810990 -0.235597
v 0.511904 1.810990 -0.342036
v 0.435339 1.810990 -0.435331
v 0.342044 1.810990 -0.511896
v 0.235605 1.810990 -0.568789
v 0.120112 1.810990 -0.603823
v -0.175361 1.810990 -0.881611
v 0.000003 1.810990 -0.898883
v -0.342648 1.810959 -0.828192
v -0.499392 1.810990 -0.747393
v -0.635606 1.810990 -0.635605
v -0.747395 1.810990 -0.499391
v -0.830461 1.810990 -0.343985
v -0.881612 1.810990 -0.175360
v -0.898884 1.810990 0.000004
v -0.881612 1.810990 0.175369
v -0.830461 1.810990 0.343994
v -0.747395 1.810990 0.499400
v -0.635606 1.810990 0.635614
v -0.499392 1.810990 0.747402
v -0.343986 1.810990 0.830468
v -0.175361 1.810990 0.881620
v 0.000003 1.810990 0.898892
v 0.175368 1.810990 0.881620
v 0.343993 1.810990 0.830468
v 0.499398 1.810990 0.747402
v 0.635613 1.810990 0.635614
v 0.747401 1.810990 0.499400
v 0.830467 1.810990 0.343994
v 0.881619 1.810990 0.175369
v 0.898891 1.810990 0.000004
v 0.881619 1.810990 -0.175360
v 0.830467 1.810990 -0.343985
v 0.747401 1.810990 -0.499391
v 0.635613 1.810990 -0.635605
v 0.499398 1.810990 -0.747393
v 0.343993 1.810990 -0.830459
v 0.175368 1.810990 -0.881611
v 0.342044 2.111020 0.511905
v 0.435338 2.111020 0.435340
v 0.511903 2.111020 0.342045
v 0.568796 2.111020 0.235606
v 0.499398 2.111021 0.747402
v 0.635612 2.111021 0.635614
v 0.747400 2.111021 0.499399
v 0.830467 2.111021 0.343994
v -0.342038 2.111048 0.511904
v -0.235598 2.111048 0.568797
v -0.120105 2.111048 0.603832
v 0.000003 2.111048 0.615661
v -0.499392 2.111049 0.747402
v -0.343986 2.111049 0.830468
v -0.175361 2.111049 0.881620
v 0.000003 2.111049 0.898892
v -0.603825 2.111121 -0.120104
v -0.615654 2.111121 0.000005
v -0.603825 2.111121 0.120113
v -0.568790 2.111121 0.235607
v -0.881613 2.111121 -0.175360
v -0.898884 2.111121 0.000005
v -0.881613 2.111121 0.175369
v -0.830461 2.111121 0.343994
v -0.118043 2.110999 -0.604031
v -0.234454 2.110968 -0.566857
v -0.343682 2.110999 -0.510552
v -0.435334 2.110999 -0.435335
v -0.175363 2.110998 -0.881615
v -0.342650 2.110968 -0.828196
v -0.499394 2.110998 -0.747397
v -0.635608 2.110998 -0.635609
v 0.568797 2.111000 -0.235597
v 0.511904 2.111000 -0.342036
v 0.435339 2.111000 -0.435331
v 0.342044 2.111000 -0.511896
v 0.830467 2.111000 -0.343985
v 0.747401 2.111000 -0.499391
v 0.635613 2.111000 -0.635605
v 0.499399 2.111000 -0.747393
vn -0.0000 1.0000 -0.0000
vn 0.9569 -0.0000 -0.2903
vn 0.1910 -0.7530 -0.6297
vn 0.2005 -0.7525 0.6274
vn -0.4175 -0.7530 0.5087
vn 0.0645 -0.7529 -0.6549
vn 0.3017 -0.7525 0.5855
vn -0.3102 -0.7530 0.5803
vn -0.0645 -0.7529 -0.6549
vn 0.4174 -0.7530 0.5087
vn -0.1910 -0.7530 0.6297
vn -0.1910 -0.7529 -0.6297
vn 0.5087 -0.7530 0.4174
vn -0.0645 -0.7530 0.6549
vn -0.3102 -0.7529 -0.5804
vn 0.5803 -0.7530 0.3102
vn -0.4175 -0.7529 -0.5087
vn 0.6297 -0.7530 0.1910
vn -0.5087 -0.7529 -0.4175
vn 0.6549 -0.7530 0.0645
vn -0.5804 -0.7529 -0.3102
vn 0.6549 -0.7530 -0.0645
vn -0.6297 -0.7530 -0.1910
vn 0.6297 -0.7530 -0.1910
vn -0.6549 -0.7530 -0.0645
vn 0.5803 -0.7530 -0.3102
vn -0.6549 -0.7530 0.0645
vn 0.5087 -0.7530 -0.4175
vn -0.6297 -0.7530 0.1910
vn 0.4175 -0.7530 -0.5087
vn -0.5804 -0.7530 0.3102
vn 0.3102 -0.7530 -0.5804
vn 0.0645 -0.7530 0.6549
vn -0.5087 -0.7530 0.4175
vn 0.3409 0.8433 -0.4154
vn -0.9952 -0.0000 -0.0980
vn 0.8819 -0.0000 -0.4714
vn -0.9952 -0.0000 0.0980
vn 0.7730 -0.0000 -0.6344
vn -0.9569 -0.0000 0.2903
vn 0.6344 -0.0000 -0.7730
vn -0.8819 -0.0000 0.4714
vn 0.4714 -0.0000 -0.8819
vn 0.0980 -0.0000 0.9952
vn -0.7730 -0.0000 0.6344
vn 0.2903 -0.0000 -0.9569
vn 0.3042 -0.0000 0.9526
vn -0.6344 -0.0000 0.7730
vn 0.0980 -0.0000 -0.9952
vn 0.4582 -0.0000 0.8889
vn -0.4714 -0.0000 0.8819
vn -0.0980 -0.0000 -0.9952
vn 0.6344 -0.0000 0.7730
vn -0.2903 -0.0000 0.9569
vn -0.2903 -0.0000 -0.9569
vn 0.7730 -0.0000 0.6344
vn -0.0980 -0.0000 0.9952
vn -0.4714 -0.0000 -0.8819
vn 0.8819 -0.0000 0.4714
vn -0.6344 -0.0000 -0.7730
vn 0.9569 -0.0000 0.2903
vn -0.7730 -0.0000 -0.6344
vn 0.9952 -0.0000 0.0980
vn -0.8819 -0.0000 -0.4714
vn 0.9952 -0.0000 -0.0980
vn -0.9569 -0.0000 -0.2903
vn -0.0000 -1.0000 -0.0000
vn -0.4740 0.8433 0.2533
vn 0.2533 0.8433 -0.4740
vn 0.0527 0.8433 0.5348
vn -0.4154 0.8433 0.3409
vn 0.1560 0.8433 -0.5143
vn 0.1635 0.8430 0.5125
vn -0.3409 0.8433 0.4154
vn 0.0527 0.8433 -0.5349
vn 0.2466 0.8430 0.4781
vn -0.2533 0.8433 0.4739
vn -0.0527 0.8433 -0.5349
vn 0.3409 0.8433 0.4154
vn -0.1560 0.8433 0.5143
vn -0.1560 0.8433 -0.5143
vn 0.4154 0.8433 0.3409
vn -0.0527 0.8433 0.5348
vn -0.2534 0.8433 -0.4740
vn 0.4739 0.8433 0.2533
vn -0.3410 0.8433 -0.4155
vn 0.5143 0.8433 0.1560
vn -0.4155 0.8433 -0.3410
vn 0.5348 0.8433 0.0527
vn -0.4740 0.8433 -0.2534
vn 0.5348 0.8433 -0.0527
vn -0.5143 0.8433 -0.1560
vn 0.5143 0.8433 -0.1560
vn -0.5349 0.8433 -0.0527
vn 0.4740 0.8433 -0.2533
vn -0.5348 0.8433 0.0527
vn 0.4154 0.8433 -0.3409
vn -0.5143 0.8433 0.1560
vn 0.7071 -0.0000 -0.7071
vn -0.1951 -0.0000 0.9808
vn 0.8315 -0.0000 0.5556
vn -0.3827 -0.0000 0.9239
vn -0.3827 -0.0000 -0.9239
vn 0.8315 -0.0000 -0.5556
vn -1.0000 -0.0000 -0.0000
vn 0.0002 -1.0000 -0.0000
vn -0.0002 -1.0000 0.0001
vn -0.3042 -0.0000 -0.9526
vn -0.4582 -0.0000 -0.8889
vn -0.9793 -0.0000 0.2022
vn 0.0001 1.0000 0.0008
vn 0.0005 1.0000 0.0006
vn -0.0002 1.0000 -0.0004
vn -0.0001 -1.0000 -0.0012
vn -0.0007 -1.0000 -0.0009
vn 0.0001 -1.0000 -0.0003
vn -0.0003 -1.0000 -0.0002
vn 0.0001 -1.0000 -0.0001
vn -0.0001 -1.0000 -0.0000
vn 0.0002 -1.0000 -0.0001
vn -0.0001 -1.0000 0.0001
s 0
f 17//1 25//1 1//1
f 42//2 75//2 43//2
f 16//3 47//3 48//3
f 3//4 34//4 35//4
f 29//5 62//5 30//5
f 17//6 48//6 49//6
f 3//7 36//7 4//7
f 30//8 63//8 31//8
f 18//9 49//9 50//9
f 5//10 36//10 37//10
f 31//11 64//11 32//11
f 19//12 50//12 51//12
f 6//13 37//13 38//13
f 32//14 33//14 1//14
f 20//15 51//15 52//15
f 7//16 38//16 39//16
f 20//17 53//17 21//17
f 8//18 39//18 40//18
f 21//19 54//19 22//19
f 9//20 40//20 41//20
f 22//21 55//21 23//21
f 10//22 41//22 42//22
f 23//23 56//23 24//23
f 11//24 42//24 43//24
f 24//25 57//25 25//25
f 12//26 43//26 44//26
f 25//27 58//27 26//27
f 13//28 44//28 45//28
f 26//29 59//29 27//29
f 14//30 45//30 46//30
f 27//31 60//31 28//31
f 15//32 46//32 47//32
f 1//33 34//33 2//33
f 28//34 61//34 29//34
f 77//35 142//35 78//35
f 57//36 88//36 89//36
f 43//37 76//37 44//37
f 58//38 89//38 90//38
f 44//39 77//39 45//39
f 59//40 90//40 91//40
f 45//41 78//41 46//41
f 60//42 91//42 92//42
f 46//43 79//43 47//43
f 33//44 66//44 34//44
f 61//45 92//45 93//45
f 47//46 80//46 48//46
f 34//47 67//47 35//47
f 62//48 93//48 94//48
f 48//49 81//49 49//49
f 36//50 67//50 68//50
f 63//51 94//51 95//51
f 49//52 82//52 50//52
f 36//53 69//53 37//53
f 64//54 95//54 96//54
f 50//55 83//55 51//55
f 37//56 70//56 38//56
f 64//57 65//57 33//57
f 51//58 84//58 52//58
f 38//59 71//59 39//59
f 53//60 84//60 85//60
f 39//61 72//61 40//61
f 54//62 85//62 86//62
f 40//63 73//63 41//63
f 55//64 86//64 87//64
f 41//65 74//65 42//65
f 56//66 87//66 88//66
f 115//67 107//67 99//67
f 92//68 155//68 156//68
f 78//69 143//69 79//69
f 66//70 130//70 129//70
f 93//71 156//71 157//71
f 79//72 144//72 80//72
f 66//73 131//73 67//73
f 94//74 157//74 158//74
f 80//75 145//75 81//75
f 68//76 131//76 132//76
f 95//77 158//77 159//77
f 81//78 146//78 82//78
f 68//79 133//79 69//79
f 96//80 159//80 160//80
f 82//81 147//81 83//81
f 69//82 134//82 70//82
f 65//83 160//83 130//83
f 83//84 148//84 84//84
f 70//85 135//85 71//85
f 85//86 148//86 149//86
f 71//87 136//87 72//87
f 86//88 149//88 150//88
f 72//89 137//89 73//89
f 87//90 150//90 151//90
f 73//91 138//91 74//91
f 88//92 151//92 152//92
f 74//93 139//93 75//93
f 89//94 152//94 153//94
f 75//95 140//95 76//95
f 90//96 153//96 154//96
f 76//97 141//97 77//97
f 91//98 154//98 155//98
f 98//67 130//67 97//67
f 129//47 190//47 131//47
f 100//60 188//60 187//60
f 133//99 188//99 101//99
f 102//67 133//67 101//67
f 102//67 135//67 134//67
f 103//67 136//67 135//67
f 104//100 181//100 136//100
f 105//38 179//38 178//38
f 138//65 182//65 183//65
f 108//67 139//67 107//67
f 109//67 140//67 108//67
f 110//67 141//67 109//67
f 145//49 175//49 176//49
f 110//101 173//101 142//101
f 112//54 170//54 111//54
f 114//67 145//67 113//67
f 115//67 146//67 114//67
f 115//67 148//67 147//67
f 119//59 163//59 118//59
f 119//102 168//102 164//102
f 151//64 167//64 168//64
f 120//67 151//67 119//67
f 120//67 153//67 152//67
f 122//67 153//67 121//67
f 123//67 154//67 122//67
f 155//103 193//103 197//103
f 125//39 194//39 124//39
f 156//45 199//45 157//45
f 126//67 159//67 158//67
f 128//67 159//67 127//67
f 128//67 130//67 160//67
f 162//67 165//67 161//67
f 162//67 167//67 166//67
f 164//67 167//67 163//67
f 148//60 166//60 149//60
f 116//53 162//53 161//53
f 149//62 167//62 150//62
f 118//56 162//56 117//56
f 148//104 161//104 165//104
f 170//67 173//67 169//67
f 170//67 175//67 174//67
f 171//67 176//67 175//67
f 145//105 172//105 113//105
f 112//57 172//57 171//57
f 142//43 174//43 143//43
f 110//51 170//51 169//51
f 143//46 175//46 144//46
f 178//67 181//67 177//67
f 179//67 182//67 178//67
f 179//67 184//67 183//67
f 139//2 183//2 184//2
f 139//103 180//103 107//103
f 106//40 180//40 179//40
f 136//63 182//63 137//63
f 104//36 178//36 177//36
f 185//106 190//106 189//106
f 187//107 190//107 186//107
f 187//67 192//67 191//67
f 98//108 186//108 185//108
f 132//50 190//50 191//50
f 100//109 186//109 99//109
f 129//110 185//110 189//110
f 132//53 192//53 133//53
f 193//67 198//67 197//67
f 194//67 199//67 198//67
f 195//67 200//67 199//67
f 157//48 200//48 158//48
f 126//101 200//101 196//101
f 126//41 195//41 125//41
f 155//42 198//42 156//42
f 124//37 193//37 123//37
f 1//111 2//111 3//111
f 3//112 4//112 5//112
f 5//1 6//1 7//1
f 7//1 8//1 9//1
f 9//1 10//1 11//1
f 11//1 12//1 13//1
f 13//1 14//1 15//1
f 15//1 16//1 17//1
f 17//1 18//1 19//1
f 19//1 20//1 21//1
f 21//1 22//1 23//1
f 23//1 24//1 25//1
f 25//1 26//1 27//1
f 27//1 28//1 29//1
f 29//1 30//1 31//1
f 31//1 32//1 1//1
f 1//113 3//113 5//113
f 5//1 7//1 9//1
f 9//1 11//1 13//1
f 13//1 15//1 17//1
f 17//1 19//1 21//1
f 21//1 23//1 25//1
f 25//1 27//1 29//1
f 29//1 31//1 1//1
f 1//1 5//1 9//1
f 9//1 13//1 17//1
f 17//1 21//1 25//1
f 25//1 29//1 1//1
f 1//1 9//1 17//1
f 42//2 74//2 75//2
f 16//3 15//3 47//3
f 3//4 2//4 34//4
f 29//5 61//5 62//5
f 17//6 16//6 48//6
f 3//7 35//7 36//7
f 30//8 62//8 63//8
f 18//9 17//9 49//9
f 5//10 4//10 36//10
f 31//11 63//11 64//11
f 19//12 18//12 50//12
f 6//13 5//13 37//13
f 32//14 64//14 33//14
f 20//15 19//15 51//15
f 7//16 6//16 38//16
f 20//17 52//17 53//17
f 8//18 7//18 39//18
f 21//19 53//19 54//19
f 9//20 8//20 40//20
f 22//21 54//21 55//21
f 10//22 9//22 41//22
f 23//23 55//23 56//23
f 11//24 10//24 42//24
f 24//25 56//25 57//25
f 12//26 11//26 43//26
f 25//27 57//27 58//27
f 13//28 12//28 44//28
f 26//29 58//29 59//29
f 14//30 13//30 45//30
f 27//31 59//31 60//31
f 15//32 14//32 46//32
f 1//33 33//33 34//33
f 28//34 60//34 61//34
f 77//35 141//35 142//35
f 57//36 56//36 88//36
f 43//37 75//37 76//37
f 58//38 57//38 89//38
f 44//39 76//39 77//39
f 59//40 58//40 90//40
f 45//41 77//41 78//41
f 60//42 59//42 91//42
f 46//43 78//43 79//43
f 33//44 65//44 66//44
f 61//45 60//45 92//45
f 47//46 79//46 80//46
f 34//47 66//47 67//47
f 62//48 61//48 93//48
f 48//49 80//49 81//49
f 36//50 35//50 67//50
f 63//51 62//51 94//51
f 49//52 81//52 82//52
f 36//53 68//53 69//53
f 64//54 63//54 95//54
f 50//55 82//55 83//55
f 37//56 69//56 70//56
f 64//57 96//57 65//57
f 51//58 83//58 84//58
f 38//59 70//59 71//59
f 53//60 52//60 84//60
f 39//61 71//61 72//61
f 54//62 53//62 85//62
f 40//63 72//63 73//63
f 55//64 54//64 86//64
f 41//65 73//65 74//65
f 56//66 55//66 87//66
f 99//114 98//114 97//114
f 97//67 128//67 127//67
f 127//67 126//67 125//67
f 125//67 124//67 123//67
f 123//67 122//67 121//67
f 121//67 120//67 119//67
f 119//67 118//67 117//67
f 117//67 116//67 115//67
f 115//67 114//67 113//67
f 113//67 112//67 111//67
f 111//67 110//67 109//67
f 109//67 108//67 107//67
f 107//67 106//67 105//67
f 105//67 104//67 103//67
f 103//67 102//67 101//67
f 101//115 100//115 99//115
f 99//116 97//116 127//116
f 127//67 125//67 123//67
f 123//67 121//67 119//67
f 119//67 117//67 115//67
f 115//67 113//67 111//67
f 111//67 109//67 107//67
f 107//67 105//67 103//67
f 103//117 101//117 99//117
f 99//118 127//118 123//118
f 123//67 119//67 115//67
f 115//67 111//67 107//67
f 107//119 103//119 99//119
f 99//67 123//67 115//67
f 92//68 91//68 155//68
f 78//69 142//69 143//69
f 66//70 65//70 130//70
f 93//71 92//71 156//71
f 79//72 143//72 144//72
f 66//73 129//73 131//73
f 94//74 93//74 157//74
f 80//75 144//75 145//75
f 68//76 67//76 131//76
f 95//77 94//77 158//77
f 81//78 145//78 146//78
f 68//79 132//79 133//79
f 96//80 95//80 159//80
f 82//81 146//81 147//81
f 69//82 133//82 134//82
f 65//83 96//83 160//83
f 83//84 147//84 148//84
f 70//85 134//85 135//85
f 85//86 84//86 148//86
f 71//87 135//87 136//87
f 86//88 85//88 149//88
f 72//89 136//89 137//89
f 87//90 86//90 150//90
f 73//91 137//91 138//91
f 88//92 87//92 151//92
f 74//93 138//93 139//93
f 89//94 88//94 152//94
f 75//95 139//95 140//95
f 90//96 89//96 153//96
f 76//97 140//97 141//97
f 91//98 90//98 154//98
f 98//67 129//67 130//67
f 129//47 189//47 190//47
f 100//60 101//60 188//60
f 133//99 192//99 188//99
f 102//67 134//67 133//67
f 102//67 103//67 135//67
f 103//67 104//67 136//67
f 104//100 177//100 181//100
f 105//38 106//38 179//38
f 138//65 137//65 182//65
f 108//67 140//67 139//67
f 109//67 141//67 140//67
f 110//67 142//67 141//67
f 145//49 144//49 175//49
f 110//101 169//101 173//101
f 112//54 171//54 170//54
f 114//67 146//67 145//67
f 115//67 147//67 146//67
f 115//67 116//67 148//67
f 119//59 164//59 163//59
f 119//102 151//102 168//102
f 151//64 150//64 167//64
f 120//67 152//67 151//67
f 120//67 121//67 153//67
f 122//67 154//67 153//67
f 123//67 155//67 154//67
f 155//103 123//103 193//103
f 125//39 195//39 194//39
f 156//45 198//45 199//45
f 126//67 127//67 159//67
f 128//67 160//67 159//67
f 128//67 97//67 130//67
f 162//67 166//67 165//67
f 162//67 163//67 167//67
f 164//67 168//67 167//67
f 148//60 165//60 166//60
f 116//53 117//53 162//53
f 149//62 166//62 167//62
f 118//56 163//56 162//56
f 148//104 116//104 161//104
f 170//67 174//67 173//67
f 170//67 171//67 175//67
f 171//67 172//67 176//67
f 145//105 176//105 172//105
f 112//57 113//57 172//57
f 142//43 173//43 174//43
f 110//51 111//51 170//51
f 143//46 174//46 175//46
f 178//67 182//67 181//67
f 179//67 183//67 182//67
f 179//67 180//67 184//67
f 139//2 138//2 183//2
f 139//103 184//103 180//103
f 106//40 107//40 180//40
f 136//63 181//63 182//63
f 104//36 105//36 178//36
f 185//120 186//120 190//120
f 187//121 191//121 190//121
f 187//67 188//67 192//67
f 98//108 99//108 186//108
f 132//50 131//50 190//50
f 100//109 187//109 186//109
f 129//110 98//110 185//110
f 132//53 191//53 192//53
f 193//67 194//67 198//67
f 194//67 195//67 199//67
f 195//67 196//67 200//67
f 157//48 199//48 200//48
f 126//101 158//101 200//101
f 126//41 196//41 195//41
f 155//42 197//42 198//42
f 124//37 194//37 193//37
