# Blender 4.1.1
# www.blender.org
o Circle_LowPoly
v -0.103923 0.940000 5.000000
v 0.103923 0.940000 5.000000
v 0.762102 0.560000 5.000000
v 0.866025 0.380000 5.000000
v 0.866025 -0.380000 5.000000
v 0.762102 -0.560000 5.000000
v 0.103923 -0.940000 5.000000
v -0.103923 -0.940000 5.000000
v -0.762102 -0.560000 5.000000
v -0.866025 -0.380000 5.000000
v -0.866025 0.380000 5.000000
v -0.762102 0.560000 5.000000
v 0.103923 0.940000 0.120000
v -0.103923 0.940000 0.120000
v 0.000000 0.861436 0.000000
v 0.762102 0.560000 0.120000
v 0.746025 0.430718 0.000000
v 0.866025 0.380000 0.120000
v 0.866025 -0.380000 0.120000
v 0.746025 -0.430718 0.000000
v 0.762102 -0.560000 0.120000
v 0.103923 -0.940000 0.120000
v 0.000000 -0.861436 0.000000
v -0.103923 -0.940000 0.120000
v -0.762102 -0.560000 0.120000
v -0.746025 -0.430718 0.000000
v -0.866025 -0.380000 0.120000
v -0.866025 0.380000 0.120000
v -0.746025 0.430718 0.000000
v -0.762102 0.560000 0.120000
vn -0.9659 -0.2588 -0.0000
vn -0.9659 0.2588 -0.0000
vn 0.9659 0.2588 -0.0000
vn 0.9659 -0.2588 -0.0000
vn -0.5000 0.8660 -0.0000
vn -0.2588 0.9659 -0.0000
vn -0.0000 -0.0000 1.0000
vn 0.2588 0.9659 -0.0000
vn 0.5000 0.8660 -0.0000
vn 0.5000 -0.8660 -0.0000
vn 0.2588 -0.9659 -0.0000
vn -0.2400 -0.7038 0.6686
vn 0.2400 -0.7038 0.6686
vn -0.0000 -0.7235 0.6904
vn -0.4895 -0.5598 0.6686
vn -0.6265 -0.3617 0.6904
vn -0.7295 -0.1440 0.6686
vn -0.7295 0.1440 0.6686
vn -0.6265 0.3617 0.6904
vn -0.4895 0.5598 0.6686
vn -0.2400 0.7038 0.6686
vn -0.0000 0.7235 0.6904
vn 0.2400 0.7038 0.6686
vn 0.4895 0.5598 0.6686
vn 0.6265 0.3617 0.6904
vn 0.7295 0.1440 0.6686
vn 0.7295 -0.1440 0.6686
vn 0.6265 -0.3617 0.6904
vn 0.4895 -0.5598 0.6686
vn 0.8660 -0.5000 -0.0000
vn -0.2588 -0.9659 -0.0000
vn 0.8660 0.5000 -0.0000
vn -0.8660 -0.5000 -0.0000
vn -0.8660 0.5000 -0.0000
vn -0.5000 -0.8660 -0.0000
vt 0.000000 0.000000
s 1
f 4/1/1 19/1/2 5/1/2
f 10/1/3 28/1/4 11/1/4
f 6/1/5 22/1/6 7/1/6
f 15/1/7 26/1/7 20/1/7
f 8/1/8 25/1/9 9/1/9
f 12/1/10 14/1/11 1/1/11
f 13/1/12 14/1/13 15/1/14
f 16/1/15 17/1/16 18/1/17
f 19/1/18 20/1/19 21/1/20
f 22/1/21 23/1/22 24/1/23
f 25/1/24 26/1/25 27/1/26
f 28/1/27 29/1/28 30/1/29
f 13/1/12 17/1/16 16/1/15
f 18/1/17 20/1/19 19/1/18
f 21/1/20 23/1/22 22/1/21
f 24/1/23 26/1/25 25/1/24
f 27/1/26 29/1/28 28/1/27
f 30/1/29 15/1/14 14/1/13
f 28/1/4 12/1/30 11/1/4
f 2/1/31 14/1/11 13/1/31
f 22/1/6 8/1/8 7/1/6
f 10/1/3 25/1/32 27/1/3
f 16/1/33 4/1/1 3/1/33
f 6/1/34 19/1/2 21/1/34
f 2/1/31 16/1/35 3/1/35
f 4/1/1 18/1/1 19/1/2
f 10/1/3 27/1/3 28/1/4
f 6/1/5 21/1/5 22/1/6
f 20/1/7 17/1/7 15/1/7
f 15/1/7 29/1/7 26/1/7
f 26/1/7 23/1/7 20/1/7
f 8/1/8 24/1/8 25/1/9
f 12/1/10 30/1/10 14/1/11
f 13/1/12 15/1/14 17/1/16
f 18/1/17 17/1/16 20/1/19
f 21/1/20 20/1/19 23/1/22
f 24/1/23 23/1/22 26/1/25
f 27/1/26 26/1/25 29/1/28
f 30/1/29 29/1/28 15/1/14
f 28/1/4 30/1/30 12/1/30
f 2/1/31 1/1/11 14/1/11
f 22/1/6 24/1/8 8/1/8
f 10/1/3 9/1/32 25/1/32
f 16/1/33 18/1/1 4/1/1
f 6/1/34 5/1/2 19/1/2
f 2/1/31 13/1/31 16/1/35
