# Blender 4.1.1
# www.blender.org
o HexagonSkirt
v 0.000000 -0.099593 -1.242951
v -1.076427 -0.099593 -0.621476
v -1.076427 -0.099593 0.621476
v 0.000000 -0.099593 1.242951
v 1.076427 -0.099593 0.621476
v 1.076427 -0.099593 -0.621476
v 0.000000 0.100000 -1.000000
v -0.866025 0.100000 -0.500000
v -0.866025 0.100000 0.500000
v 0.000000 0.100000 1.000000
v 0.866025 0.100000 0.500000
v 0.866025 0.100000 -0.500000
v -0.866025 0.000000 -0.500000
v 0.000000 0.000000 -1.000000
v -0.866025 0.000000 0.500000
v 0.000000 0.000000 1.000000
v 0.866025 0.000000 0.500000
v 0.866025 0.000000 -0.500000
vn 1.0000 -0.0000 -0.0000
vn -0.0000 1.0000 -0.0000
vn -0.5000 -0.0000 0.8660
vn -0.5000 -0.0000 -0.8660
vn 0.5000 -0.0000 -0.8660
vn 0.5000 -0.0000 0.8660
vn -1.0000 -0.0000 -0.0000
vn -0.0000 -1.0000 -0.0000
vn -0.2139 0.9039 -0.3705
vn -0.4278 0.9039 -0.0000
vn -0.2139 0.9039 0.3705
vn 0.2139 0.9039 0.3705
vn 0.4278 0.9039 -0.0000
vn 0.2139 0.9039 -0.3705
s 0
f 18//1 11//1 17//1
f 9//2 11//2 7//2
f 16//3 9//3 15//3
f 13//4 7//4 14//4
f 14//5 12//5 18//5
f 17//6 10//6 16//6
f 15//7 8//7 13//7
f 1//8 5//8 3//8
f 2//9 14//9 1//9
f 3//10 13//10 2//10
f 4//11 15//11 3//11
f 5//12 16//12 4//12
f 6//13 17//13 5//13
f 1//14 18//14 6//14
f 18//1 12//1 11//1
f 7//2 8//2 9//2
f 9//2 10//2 11//2
f 11//2 12//2 7//2
f 16//3 10//3 9//3
f 13//4 8//4 7//4
f 14//5 7//5 12//5
f 17//6 11//6 10//6
f 15//7 9//7 8//7
f 3//8 2//8 1//8
f 1//8 6//8 5//8
f 5//8 4//8 3//8
f 2//9 13//9 14//9
f 3//10 15//10 13//10
f 4//11 16//11 15//11
f 5//12 17//12 16//12
f 6//13 18//13 17//13
f 1//14 14//14 18//14
