# Blender 4.1.1
# www.blender.org
o Question
v -0.070435 -0.862321 0.008103
v 0.028643 -0.862321 0.008103
v -0.259405 0.386536 0.001567
v -0.329181 0.462289 -0.004978
v -0.055005 -0.296490 0.008431
v 0.069327 -0.330426 0.002373
v -0.070435 -0.758504 0.008103
v 0.028643 -0.758504 0.008103
v 0.028145 -0.462439 0.007400
v -0.069937 -0.454516 0.008805
v 0.225279 -0.071194 0.000267
v 0.114827 -0.014202 0.010536
v 0.419451 0.316705 0.004672
v 0.302881 0.314550 0.006132
v 0.246375 0.647792 0.007634
v 0.175908 0.560973 0.003169
v -0.071680 0.675614 0.002133
v -0.042024 0.564274 0.004119
v -0.070330 -0.862464 0.024308
v 0.028747 -0.862464 0.024308
v -0.258564 0.386275 0.019509
v -0.328340 0.462028 0.012964
v -0.054865 -0.296681 0.030038
v 0.069467 -0.330616 0.023980
v -0.070330 -0.758647 0.024308
v 0.028747 -0.758647 0.024308
v 0.028249 -0.462582 0.023605
v -0.069833 -0.454659 0.025011
v 0.225419 -0.071384 0.021874
v 0.114966 -0.014393 0.032143
v 0.419591 0.316515 0.026279
v 0.303021 0.314359 0.027739
v 0.246514 0.647601 0.029242
v 0.176048 0.560783 0.024776
v -0.071295 0.675385 0.024319
v -0.041639 0.564044 0.026305
v -0.081302 -0.810397 0.006327
v -0.020908 -0.873680 0.006327
v -0.236974 0.564000 -0.003811
v -0.312636 0.405665 -0.004414
v 0.011925 -0.165551 0.010076
v 0.044524 -0.416487 0.004339
v 0.007135 -0.313422 0.001350
v 0.039487 -0.810397 0.006327
v -0.020908 -0.747113 0.006327
v -0.079327 -0.399315 0.007390
v -0.020908 -0.467919 0.006327
v 0.127344 -0.217618 0.000728
v 0.233501 0.150873 0.008836
v 0.170027 -0.042662 0.001350
v 0.348275 0.114123 0.001968
v 0.270096 0.458618 0.003953
v 0.361140 0.315663 0.001350
v 0.372618 0.506643 0.006851
v 0.071735 0.600543 0.003926
v 0.211116 0.604418 0.001350
v 0.094703 0.707786 0.006308
v -0.167330 0.462574 0.002331
v -0.056924 0.619987 -0.001034
v -0.081175 -0.810571 0.026084
v -0.020780 -0.873855 0.026084
v -0.236185 0.563712 0.018417
v -0.311535 0.405334 0.017639
v 0.012065 -0.165741 0.031683
v 0.044657 -0.416669 0.025021
v 0.007327 -0.313684 0.031060
v 0.039614 -0.810571 0.026084
v -0.020780 -0.747287 0.026084
v -0.079193 -0.399497 0.028072
v -0.020780 -0.468093 0.026084
v 0.127484 -0.217808 0.022335
v 0.233640 0.150682 0.030443
v 0.170219 -0.042924 0.031060
v 0.348415 0.113932 0.023575
v 0.270236 0.458428 0.025560
v 0.361332 0.315401 0.031060
v 0.372758 0.506453 0.028458
v 0.071905 0.600347 0.025606
v 0.211307 0.604156 0.031060
v 0.094873 0.707591 0.027988
v -0.166541 0.462286 0.024559
v -0.056395 0.619671 0.029472
v 0.441378 0.317014 0.015202
v 0.246059 -0.081975 0.009145
v 0.039551 -0.747200 0.016205
v 0.039551 -0.873767 0.016205
v -0.081238 -0.873767 0.016205
v -0.081238 -0.747200 0.016205
v 0.281094 0.314050 0.017209
v 0.162766 0.544600 0.013136
v -0.080734 -0.463989 0.016918
v -0.078247 -0.290223 0.020370
v -0.356874 0.450997 0.002354
v -0.077048 0.696376 0.012853
v 0.259657 0.663975 0.019275
v 0.039046 -0.472022 0.015493
v -0.267297 0.360002 0.010871
v -0.036271 0.543283 0.015584
v 0.092709 -0.336884 0.012041
v 0.094187 -0.003612 0.023265
v -0.204104 0.511490 -0.005003
v -0.017426 -0.408799 0.001976
v -0.020932 -0.810364 0.002601
v 0.069609 -0.191548 0.001350
v 0.290862 0.132533 0.001350
v 0.321331 0.482666 0.001350
v 0.083187 0.654201 0.001052
v -0.203002 0.511092 0.025623
v -0.017243 -0.409049 0.030435
v -0.020756 -0.810604 0.029810
v 0.069800 -0.191810 0.031060
v 0.291054 0.132272 0.031060
v 0.321523 0.482405 0.031060
v 0.083421 0.653932 0.030862
v 0.369865 0.107137 0.011484
v 0.062332 -0.810484 0.016205
v -0.104020 -0.810484 0.016205
v 0.250943 0.449518 0.014213
v -0.020844 -0.723329 0.016205
v -0.020844 -0.897639 0.016205
v -0.102570 -0.397287 0.018273
v -0.251963 0.580927 0.006025
v 0.391911 0.515553 0.018198
v -0.020844 -0.487852 0.016205
v -0.350307 0.366082 0.005242
v 0.067514 0.580337 0.014319
v 0.149055 -0.227476 0.009779
v -0.009646 -0.155883 0.022632
v 0.212050 0.157668 0.020927
v 0.067901 -0.420561 0.014138
v 0.099094 0.727796 0.017595
v -0.155144 0.441655 0.014594
vn 0.0790 -0.0708 -0.9944
vn 0.0809 -0.0880 -0.9928
vn -0.0073 0.0181 -0.9998
vn -0.0021 0.0563 -0.9984
vn -0.0692 -0.0692 -0.9952
vn -0.0826 0.0296 -0.9961
vn 0.0362 -0.0159 -0.9992
vn 0.0302 -0.0751 -0.9967
vn -0.0492 -0.0587 -0.9971
vn -0.0616 0.0470 -0.9970
vn 0.0615 0.0470 -0.9970
vn 0.0492 -0.0587 -0.9971
vn -0.0964 0.0617 -0.9934
vn -0.1136 0.0803 -0.9903
vn -0.0083 0.0056 -1.0000
vn 0.0144 -0.0074 -0.9999
vn -0.1239 0.0789 -0.9891
vn -0.1187 0.0339 -0.9924
vn 0.0096 -0.0037 -0.9999
vn -0.0145 0.0100 -0.9998
vn -0.0811 -0.0335 -0.9961
vn -0.0356 -0.0322 -0.9988
vn 0.0734 0.0712 -0.9948
vn 0.0564 0.0254 -0.9981
vn -0.0106 -0.0332 -0.9994
vn 0.0294 -0.0597 -0.9978
vn 0.0064 0.0963 -0.9953
vn 0.0496 0.1036 -0.9934
vn 0.0023 -0.0200 0.9998
vn -0.0864 0.0815 0.9929
vn -0.1184 0.0467 0.9919
vn -0.0228 -0.0388 0.9990
vn -0.0478 -0.0634 0.9968
vn 0.0589 -0.0769 0.9953
vn 0.0837 -0.0281 0.9961
vn -0.0396 -0.0097 0.9992
vn -0.0615 -0.0470 0.9970
vn 0.0493 -0.0588 0.9971
vn 0.0492 0.0587 0.9971
vn -0.0615 0.0469 0.9970
vn -0.0174 -0.0036 0.9998
vn 0.0994 -0.0509 0.9937
vn 0.1149 -0.0775 0.9904
vn 0.0072 -0.0079 0.9999
vn 0.0182 -0.0028 0.9998
vn 0.1214 -0.0837 0.9891
vn 0.1153 -0.0443 0.9923
vn -0.0048 0.0186 0.9998
vn -0.1028 -0.0083 0.9947
vn 0.0456 0.0109 0.9989
vn 0.0244 0.0221 0.9995
vn -0.0874 -0.0729 0.9935
vn -0.0270 -0.0918 0.9954
vn 0.0178 0.0497 0.9986
vn -0.0305 0.0840 0.9960
vn 0.0224 -0.0509 0.9985
vn 0.3003 -0.1908 -0.9346
vn 0.3685 -0.1172 -0.9222
vn 0.4433 -0.1675 0.8806
vn 0.3995 -0.2732 0.8751
vn 0.4678 -0.1684 -0.8676
vn 0.3947 0.1137 -0.9118
vn 0.3958 0.1140 0.9112
vn 0.4715 -0.1697 0.8654
vn -0.4715 0.1697 -0.8654
vn -0.3958 -0.1140 -0.9112
vn -0.3947 -0.1137 0.9118
vn -0.4678 0.1684 0.8676
vn -0.3114 -0.2990 -0.9020
vn -0.4278 -0.1109 -0.8970
vn -0.4751 -0.0864 0.8757
vn -0.3643 -0.3280 0.8716
vn 0.1791 0.4531 -0.8733
vn -0.1205 0.3810 -0.9167
vn -0.1196 0.3782 0.9180
vn 0.1782 0.4509 0.8746
vn -0.1782 -0.4509 -0.8746
vn 0.1196 -0.3782 -0.9180
vn 0.1205 -0.3810 0.9167
vn -0.1791 -0.4531 0.8733
vn -0.4303 0.1109 -0.8959
vn -0.4289 -0.0960 -0.8982
vn -0.3933 -0.1173 0.9119
vn -0.3650 0.0686 0.9285
vn -0.2289 0.3993 -0.8878
vn -0.2913 0.2746 -0.9164
vn -0.3737 0.2914 0.8806
vn -0.2945 0.3947 0.8703
vn 0.4284 0.1203 -0.8956
vn 0.3615 0.3285 -0.8726
vn 0.3384 0.2951 0.8935
vn 0.4492 0.0985 0.8880
vn -0.2056 -0.4907 -0.8467
vn 0.0690 -0.4428 -0.8940
vn 0.0951 -0.4454 0.8903
vn -0.1915 -0.5058 0.8411
vn -0.2262 -0.0758 -0.9711
vn 0.0448 -0.2768 -0.9599
vn -0.0823 -0.2253 0.9708
vn -0.3405 -0.0234 0.9400
vn 0.1473 -0.4427 -0.8845
vn -0.1696 -0.4225 -0.8903
vn -0.1609 -0.4578 0.8743
vn 0.1607 -0.4197 0.8933
vn 0.3317 -0.1841 -0.9252
vn 0.2974 -0.2018 -0.9332
vn 0.3953 -0.2616 0.8805
vn 0.4058 -0.1957 0.8928
vn -0.3991 0.2740 -0.8750
vn -0.4140 0.2227 -0.8826
vn -0.3207 0.1522 0.9349
vn -0.2962 0.1985 0.9343
vn -0.4493 0.1760 -0.8759
vn -0.4024 0.2803 -0.8715
vn -0.3244 0.2427 0.9142
vn -0.4268 0.1955 0.8830
vn 0.4193 -0.2580 -0.8704
vn 0.3647 -0.1262 -0.9225
vn 0.4070 -0.1064 0.9072
vn 0.4489 -0.2289 0.8638
vn 0.1933 0.4634 -0.8648
vn -0.0662 0.5012 -0.8628
vn -0.1078 0.4725 0.8747
vn 0.1570 0.4185 0.8945
vn 0.3172 -0.3964 -0.8615
vn 0.3022 -0.3449 -0.8887
vn 0.2524 -0.3042 0.9186
vn 0.2433 -0.3750 0.8945
vn 0.0838 -0.0858 -0.9928
vn 0.0801 -0.0876 -0.9929
vn 0.0033 -0.0090 -1.0000
vn 0.0070 0.0271 -0.9996
vn -0.0933 -0.0414 -0.9948
vn -0.1075 0.0212 -0.9940
vn 0.0094 -0.0256 -0.9996
vn 0.0285 -0.0766 -0.9967
vn -0.0615 -0.0470 -0.9970
vn -0.0493 0.0588 -0.9971
vn 0.0492 0.0587 -0.9971
vn 0.0615 -0.0469 -0.9970
vn -0.1217 0.0624 -0.9906
vn -0.1221 0.0824 -0.9891
vn -0.0158 0.0074 -0.9998
vn -0.0141 -0.0073 -0.9999
vn -0.1060 0.0731 -0.9917
vn -0.0824 0.0316 -0.9961
vn 0.0570 -0.0067 -0.9984
vn 0.0113 0.0017 -0.9999
vn -0.0456 -0.0109 -0.9989
vn -0.0198 -0.0258 -0.9995
vn 0.0838 0.0758 -0.9936
vn 0.0960 0.0229 -0.9951
vn -0.0255 -0.0480 -0.9985
vn 0.0255 -0.0853 -0.9960
vn 0.0009 0.0571 -0.9984
vn 0.0372 0.0896 -0.9953
vn 0.0133 -0.0533 0.9985
vn -0.0828 0.0698 0.9941
vn -0.1228 0.0582 0.9907
vn -0.0456 -0.0286 0.9986
vn -0.0412 -0.0710 0.9966
vn 0.0797 -0.0592 0.9951
vn 0.1080 -0.0191 0.9940
vn -0.0170 -0.0022 0.9999
vn -0.0492 -0.0587 0.9971
vn 0.0616 -0.0470 0.9970
vn 0.0615 0.0470 0.9970
vn -0.0492 0.0587 0.9971
vn 0.0088 -0.0045 1.0000
vn 0.1269 -0.0508 0.9906
vn 0.1236 -0.0795 0.9891
vn 0.0145 -0.0098 0.9998
vn -0.0088 0.0061 0.9999
vn 0.1043 -0.0783 0.9915
vn 0.0825 -0.0423 0.9957
vn -0.0572 0.0220 0.9981
vn -0.0566 -0.0135 0.9983
vn 0.0816 0.0087 0.9966
vn 0.0376 0.0281 0.9989
vn -0.0750 -0.0679 0.9949
vn -0.0437 -0.1084 0.9932
vn 0.0063 0.0367 0.9993
vn -0.0338 0.0606 0.9976
vn 0.0148 -0.1008 0.9948
vn 0.3369 -0.2092 -0.9180
vn 0.4307 -0.1309 -0.8930
vn 0.4498 -0.1688 0.8770
vn 0.4043 -0.2755 0.8721
vn 0.3940 -0.1135 -0.9121
vn 0.4690 0.1688 -0.8669
vn 0.4703 0.1693 0.8661
vn 0.3965 -0.1142 0.9109
vn -0.3965 0.1142 -0.9109
vn -0.4703 -0.1693 -0.8661
vn -0.4690 -0.1688 0.8669
vn -0.3940 0.1135 0.9121
vn -0.3300 -0.3105 -0.8914
vn -0.4478 -0.1193 -0.8861
vn -0.4304 -0.0844 0.8987
vn -0.3624 -0.3268 0.8728
vn 0.1203 0.3805 -0.9169
vn -0.1795 0.4541 -0.8727
vn -0.1779 0.4500 0.8751
vn 0.1198 0.3787 0.9177
vn -0.1198 -0.3787 -0.9177
vn 0.1779 -0.4500 -0.8751
vn 0.1795 -0.4541 0.8727
vn -0.1203 -0.3805 0.9169
vn -0.4134 0.1116 -0.9037
vn -0.5072 -0.1488 -0.8489
vn -0.4851 -0.1762 0.8565
vn -0.3802 0.0683 0.9224
vn -0.2039 0.3506 -0.9141
vn -0.3613 0.3165 -0.8771
vn -0.4385 0.3305 0.8358
vn -0.2849 0.3741 0.8825
vn 0.4601 0.1235 -0.8792
vn 0.3628 0.3293 -0.8717
vn 0.3261 0.2866 0.9009
vn 0.4339 0.0967 0.8958
vn -0.1645 -0.4384 -0.8836
vn 0.1344 -0.5457 -0.8272
vn 0.1521 -0.5383 0.8289
vn -0.1405 -0.4424 0.8858
vn -0.1997 -0.0487 -0.9787
vn -0.0117 -0.3278 -0.9447
vn -0.1309 -0.2701 0.9539
vn -0.3120 0.0082 0.9500
vn 0.1506 -0.4769 -0.8660
vn -0.1637 -0.4137 -0.8956
vn -0.1743 -0.4767 0.8616
vn 0.1689 -0.5121 0.8422
vn 0.3086 -0.1782 -0.9343
vn 0.2950 -0.2007 -0.9342
vn 0.4038 -0.2654 0.8755
vn 0.4243 -0.2003 0.8831
vn -0.3910 0.2703 -0.8798
vn -0.3986 0.2185 -0.8907
vn -0.3397 0.1579 0.9272
vn -0.2984 0.1996 0.9333
vn -0.4412 0.1739 -0.8804
vn -0.3971 0.2775 -0.8748
vn -0.2840 0.2210 0.9330
vn -0.3488 0.1759 0.9205
vn 0.3520 -0.1865 -0.9172
vn 0.3489 -0.1267 -0.9285
vn 0.4317 -0.1055 0.8958
vn 0.3946 -0.1689 0.9032
vn 0.1862 0.4514 -0.8727
vn -0.0636 0.4449 -0.8933
vn -0.1075 0.4537 0.8846
vn 0.1607 0.4247 0.8910
vn 0.2956 -0.3491 -0.8892
vn 0.3237 -0.3837 -0.8649
vn 0.2949 -0.3771 0.8780
vn 0.2175 -0.3245 0.9206
vt 0.000000 0.968750
vt 0.500000 0.984375
vt 0.500000 0.968750
vt 0.000000 1.000000
vt 0.000000 0.984375
vt 1.000000 1.000000
vt 1.000000 0.984375
vt 1.000000 0.968750
vt 0.000000 0.206299
vt 0.500000 0.352542
vt 0.500000 0.206299
vt 0.000000 0.500000
vt 0.000000 0.353149
vt 0.500000 0.493930
vt 1.000000 0.353149
vt 1.000000 0.206299
vt 0.000000 0.000000
vt 0.500000 0.051909
vt 0.500000 0.000000
vt 0.000000 0.103817
vt 0.000000 0.051909
vt 1.000000 0.103817
vt 1.000000 0.051909
vt 1.000000 0.000000
vt 0.000000 0.625000
vt 0.000000 0.750000
vt 0.500000 0.622657
vt 0.500000 0.732639
vt 1.000000 0.625000
vt 1.000000 0.500000
vt 0.000000 0.812500
vt 0.000000 0.875000
vt 0.500000 0.809896
vt 0.500000 0.866320
vt 1.000000 0.812500
vt 1.000000 0.750000
vt 0.000000 0.906250
vt 0.500000 0.933160
vt 0.500000 0.904948
vt 1.000000 0.937500
vt 1.000000 0.906250
vt 1.000000 0.875000
vt 0.000000 0.937500
vt 0.500000 0.952691
vt 0.000000 0.953125
vt 1.000000 0.953125
vt 0.166667 0.968750
vt 0.500000 0.983555
vt 0.180941 0.983387
vt 0.819059 0.983386
vt 0.750000 0.992188
vt 0.500000 0.993900
vt 0.250000 0.992188
vt 0.250000 0.279724
vt 0.500000 0.359944
vt 0.180941 0.361530
vt 0.750000 0.279724
vt 0.500000 0.263634
vt 0.819059 0.361530
vt 0.500000 0.492716
vt 0.166667 0.492716
vt 0.250000 0.025954
vt 0.500000 0.051909
vt 0.195216 0.051909
vt 0.750000 0.025954
vt 0.500000 0.020267
vt 0.750000 0.077863
vt 0.500000 0.083550
vt 0.250000 0.077863
vt 0.500000 0.492716
vt 0.166667 0.621485
vt 0.166667 0.492716
vt 0.833333 0.492716
vt 0.500000 0.621486
vt 0.833333 0.621485
vt 0.500000 0.729167
vt 0.166667 0.729167
vt 0.166667 0.808594
vt 0.833333 0.729167
vt 0.500000 0.808594
vt 0.833333 0.808594
vt 0.500000 0.864583
vt 0.166667 0.864583
vt 0.500000 0.904297
vt 0.166667 0.904297
vt 0.833333 0.904297
vt 0.833333 0.932292
vt 0.500000 0.932292
vt 0.166667 0.932292
vt 0.500000 0.952474
vt 0.166667 0.952474
vt 0.833333 0.952474
vt 0.833333 0.968750
vt 0.166667 0.968750
vt 0.979167 0.730903
vt 0.979167 0.809245
vt 0.833333 0.864583
vt 0.833333 0.808594
vt 0.833333 0.729167
vt 1.000000 0.000000
vt 0.945988 0.051909
vt 0.832948 0.017343
vt 1.000000 0.103817
vt 0.804784 0.051909
vt 0.000000 0.103817
vt 0.054012 0.051909
vt 0.167053 0.086474
vt 0.000000 0.051909
vt 0.195216 0.051909
vt 0.020833 0.904622
vt 0.020833 0.932726
vt 0.020833 0.865451
vt 0.166667 0.904297
vt 0.166667 0.932292
vt 0.500000 0.098210
vt 0.832948 0.086474
vt 0.500000 0.103817
vt 0.500000 0.083550
vt 0.500000 0.005607
vt 0.167052 0.017343
vt 0.020833 0.493323
vt 0.000000 0.206299
vt 0.037423 0.358283
vt 0.180941 0.361530
vt 0.962577 0.983748
vt 0.979167 0.968750
vt 1.000000 1.000000
vt 0.833333 0.968750
vt 0.979167 0.904622
vt 0.979167 0.865451
vt 0.979167 0.932726
vt 0.500000 0.222162
vt 0.167052 0.255362
vt 1.000000 0.206299
vt 0.500000 1.000000
vt 0.832948 0.994780
vt 0.167053 0.994780
vt 0.500000 0.998312
vt 0.500000 0.993900
vt 0.020833 0.952583
vt 0.020833 0.968750
vt 0.166667 0.952474
vt 0.979167 0.493323
vt 0.979167 0.622071
vt 0.833333 0.621485
vt 0.833333 0.492716
vt 0.000000 0.625000
vt 0.020833 0.730903
vt 0.020833 0.622071
vt 0.166667 0.729167
vt 0.020833 0.809245
vt 0.166667 0.864583
vt 0.962577 0.358283
vt 0.832948 0.255362
vt 0.979167 0.952583
vt 0.833333 0.952474
vt 0.833333 0.932292
vt 0.000000 1.000000
vt 0.037423 0.983748
vt 0.180941 0.983386
vt 0.833333 0.968750
vt 0.833333 0.492716
s 0
f 18/1/1 101/2/1 59/3/1
f 3/4/2 101/2/2 58/5/2
f 101/2/3 4/6/3 39/7/3
f 59/3/4 39/7/4 17/8/4
f 10/9/5 102/10/5 47/11/5
f 5/12/6 102/10/6 46/13/6
f 43/14/7 42/15/7 102/10/7
f 102/10/8 9/16/8 47/11/8
f 1/17/9 103/18/9 38/19/9
f 7/20/10 103/18/10 37/21/10
f 103/18/11 8/22/11 44/23/11
f 103/18/12 2/24/12 38/19/12
f 41/25/13 43/14/13 5/12/13
f 12/26/14 104/27/14 41/25/14
f 50/28/15 48/29/15 104/27/15
f 104/27/16 6/30/16 43/14/16
f 49/31/17 50/28/17 12/26/17
f 14/32/18 105/33/18 49/31/18
f 53/34/19 51/35/19 105/33/19
f 105/33/20 11/36/20 50/28/20
f 52/37/21 53/34/21 14/32/21
f 52/37/22 56/38/22 106/39/22
f 106/39/23 15/40/23 54/41/23
f 53/34/24 54/41/24 13/42/24
f 16/43/25 107/44/25 56/38/25
f 55/45/26 59/3/26 107/44/26
f 107/44/27 17/8/27 57/46/27
f 56/38/28 57/46/28 15/40/28
f 36/47/29 108/48/29 81/49/29
f 82/3/30 62/50/30 108/48/30
f 108/48/31 22/51/31 63/52/31
f 108/48/32 21/53/32 81/49/32
f 28/54/33 109/55/33 69/56/33
f 27/57/34 109/55/34 70/58/34
f 65/59/35 66/60/35 109/55/35
f 109/55/36 23/61/36 69/56/36
f 19/62/37 110/63/37 60/64/37
f 20/65/38 110/63/38 61/66/38
f 110/63/39 26/67/39 68/68/39
f 110/63/40 25/69/40 60/64/40
f 66/70/41 64/71/41 23/72/41
f 24/73/42 111/74/42 66/70/42
f 71/75/43 73/76/43 111/74/43
f 111/74/44 30/77/44 64/71/44
f 73/76/45 72/78/45 30/77/45
f 29/79/46 112/80/46 73/76/46
f 74/81/47 76/82/47 112/80/47
f 112/80/48 32/83/48 72/78/48
f 32/83/49 113/84/49 75/85/49
f 76/82/50 77/86/50 113/84/50
f 113/84/51 33/87/51 79/88/51
f 75/85/52 79/88/52 34/89/52
f 34/89/53 114/90/53 78/91/53
f 79/88/54 80/92/54 114/90/54
f 114/90/55 35/93/55 82/3/55
f 78/91/56 82/3/56 36/94/56
f 51/35/57 84/95/57 11/36/57
f 13/42/58 115/96/58 51/35/58
f 115/96/59 31/97/59 74/98/59
f 84/95/60 74/98/60 29/99/60
f 2/100/61 116/101/61 86/102/61
f 8/103/62 116/101/62 44/23/62
f 116/101/63 26/67/63 67/104/63
f 116/101/64 20/65/64 86/102/64
f 7/105/65 117/106/65 88/107/65
f 1/17/66 117/106/66 37/108/66
f 117/106/67 19/62/67 60/109/67
f 117/106/68 25/69/68 88/107/68
f 16/43/69 118/110/69 90/111/69
f 14/32/70 118/110/70 52/37/70
f 89/112/71 75/113/71 118/110/71
f 118/110/72 34/114/72 90/111/72
f 8/103/73 119/115/73 85/116/73
f 7/105/74 119/115/74 45/117/74
f 119/115/75 25/69/75 68/118/75
f 119/115/76 26/67/76 85/116/76
f 1/17/77 120/119/77 87/120/77
f 2/100/78 120/119/78 38/19/78
f 120/119/79 20/65/79 61/66/79
f 120/119/80 19/62/80 87/120/80
f 46/13/81 92/121/81 5/12/81
f 10/122/82 121/123/82 46/13/82
f 121/123/83 28/54/83 69/124/83
f 92/121/84 69/124/84 23/61/84
f 17/8/85 122/125/85 94/126/85
f 4/127/86 122/125/86 39/7/86
f 122/125/87 22/51/87 62/50/87
f 122/125/88 35/128/88 94/126/88
f 13/42/89 123/129/89 83/130/89
f 54/41/90 95/131/90 123/129/90
f 95/131/91 77/86/91 123/129/91
f 123/129/92 31/97/92 83/130/92
f 10/122/93 124/132/93 91/133/93
f 9/134/94 124/132/94 47/11/94
f 124/132/95 27/57/95 70/58/95
f 124/132/96 28/54/96 91/133/96
f 40/135/97 93/136/97 4/127/97
f 40/135/98 97/137/98 125/138/98
f 97/137/99 63/139/99 125/138/99
f 93/136/100 63/139/100 22/51/100
f 18/1/101 126/140/101 98/141/101
f 55/45/102 90/111/102 126/140/102
f 90/111/103 78/142/103 126/140/103
f 126/140/104 36/47/104 98/141/104
f 48/29/105 99/143/105 6/30/105
f 11/36/106 127/144/106 48/29/106
f 127/144/107 29/99/107 71/145/107
f 99/143/108 71/145/108 24/146/108
f 41/147/109 100/148/109 12/26/109
f 5/12/110 128/149/110 41/147/110
f 128/149/111 23/61/111 64/71/111
f 100/148/112 64/71/112 30/150/112
f 49/31/113 89/112/113 14/32/113
f 12/26/114 129/151/114 49/31/114
f 129/151/115 30/150/115 72/78/115
f 89/112/116 72/78/116 32/152/116
f 9/134/117 130/153/117 96/154/117
f 6/30/118 130/153/118 42/15/118
f 130/153/119 24/146/119 65/59/119
f 130/153/120 27/57/120 96/154/120
f 15/40/121 131/155/121 95/131/121
f 57/46/122 94/126/122 131/155/122
f 94/126/123 80/156/123 131/155/123
f 131/155/124 33/157/124 95/131/124
f 3/158/125 132/159/125 97/137/125
f 58/5/126 98/141/126 132/159/126
f 98/141/127 81/160/127 132/159/127
f 132/159/128 21/53/128 97/137/128
f 18/1/129 58/5/129 101/2/129
f 3/4/130 40/135/130 101/2/130
f 101/2/131 40/135/131 4/6/131
f 59/3/132 101/2/132 39/7/132
f 10/9/133 46/13/133 102/10/133
f 5/12/134 43/14/134 102/10/134
f 43/14/135 6/30/135 42/15/135
f 102/10/136 42/15/136 9/16/136
f 1/17/137 37/21/137 103/18/137
f 7/20/138 45/117/138 103/18/138
f 103/18/139 45/117/139 8/22/139
f 103/18/140 44/23/140 2/24/140
f 41/25/141 104/27/141 43/14/141
f 12/26/142 50/28/142 104/27/142
f 50/28/143 11/36/143 48/29/143
f 104/27/144 48/29/144 6/30/144
f 49/31/145 105/33/145 50/28/145
f 14/32/146 53/34/146 105/33/146
f 53/34/147 13/42/147 51/35/147
f 105/33/148 51/35/148 11/36/148
f 52/37/149 106/39/149 53/34/149
f 52/37/150 16/43/150 56/38/150
f 106/39/151 56/38/151 15/40/151
f 53/34/152 106/39/152 54/41/152
f 16/43/153 55/45/153 107/44/153
f 55/45/154 18/1/154 59/3/154
f 107/44/155 59/3/155 17/8/155
f 56/38/156 107/44/156 57/46/156
f 36/47/157 82/3/157 108/48/157
f 82/3/158 35/161/158 62/50/158
f 108/48/159 62/50/159 22/51/159
f 108/48/160 63/52/160 21/53/160
f 28/54/161 70/58/161 109/55/161
f 27/57/162 65/59/162 109/55/162
f 65/59/163 24/162/163 66/60/163
f 109/55/164 66/60/164 23/61/164
f 19/62/165 61/66/165 110/63/165
f 20/65/166 67/104/166 110/63/166
f 110/63/167 67/104/167 26/67/167
f 110/63/168 68/68/168 25/69/168
f 66/70/169 111/74/169 64/71/169
f 24/73/170 71/75/170 111/74/170
f 71/75/171 29/79/171 73/76/171
f 111/74/172 73/76/172 30/77/172
f 73/76/173 112/80/173 72/78/173
f 29/79/174 74/81/174 112/80/174
f 74/81/175 31/97/175 76/82/175
f 112/80/176 76/82/176 32/83/176
f 32/83/177 76/82/177 113/84/177
f 76/82/178 31/97/178 77/86/178
f 113/84/179 77/86/179 33/87/179
f 75/85/180 113/84/180 79/88/180
f 34/89/181 79/88/181 114/90/181
f 79/88/182 33/87/182 80/92/182
f 114/90/183 80/92/183 35/93/183
f 78/91/184 114/90/184 82/3/184
f 51/35/185 115/96/185 84/95/185
f 13/42/186 83/130/186 115/96/186
f 115/96/187 83/130/187 31/97/187
f 84/95/188 115/96/188 74/98/188
f 2/100/189 44/23/189 116/101/189
f 8/103/190 85/116/190 116/101/190
f 116/101/191 85/116/191 26/67/191
f 116/101/192 67/104/192 20/65/192
f 7/105/193 37/108/193 117/106/193
f 1/17/194 87/120/194 117/106/194
f 117/106/195 87/120/195 19/62/195
f 117/106/196 60/109/196 25/69/196
f 16/43/197 52/37/197 118/110/197
f 14/32/198 89/112/198 118/110/198
f 89/112/199 32/152/199 75/113/199
f 118/110/200 75/113/200 34/114/200
f 8/103/201 45/117/201 119/115/201
f 7/105/202 88/107/202 119/115/202
f 119/115/203 88/107/203 25/69/203
f 119/115/204 68/118/204 26/67/204
f 1/17/205 38/19/205 120/119/205
f 2/100/206 86/102/206 120/119/206
f 120/119/207 86/102/207 20/65/207
f 120/119/208 61/66/208 19/62/208
f 46/13/209 121/123/209 92/121/209
f 10/122/210 91/133/210 121/123/210
f 121/123/211 91/133/211 28/54/211
f 92/121/212 121/123/212 69/124/212
f 17/8/213 39/7/213 122/125/213
f 4/127/214 93/136/214 122/125/214
f 122/125/215 93/136/215 22/51/215
f 122/125/216 62/50/216 35/128/216
f 13/42/217 54/41/217 123/129/217
f 54/41/218 15/40/218 95/131/218
f 95/131/219 33/157/219 77/86/219
f 123/129/220 77/86/220 31/97/220
f 10/122/221 47/11/221 124/132/221
f 9/134/222 96/154/222 124/132/222
f 124/132/223 96/154/223 27/57/223
f 124/132/224 70/58/224 28/54/224
f 40/135/225 125/138/225 93/136/225
f 40/135/226 3/158/226 97/137/226
f 97/137/227 21/53/227 63/139/227
f 93/136/228 125/138/228 63/139/228
f 18/1/229 55/45/229 126/140/229
f 55/45/230 16/43/230 90/111/230
f 90/111/231 34/114/231 78/142/231
f 126/140/232 78/142/232 36/47/232
f 48/29/233 127/144/233 99/143/233
f 11/36/234 84/95/234 127/144/234
f 127/144/235 84/95/235 29/99/235
f 99/143/236 127/144/236 71/145/236
f 41/147/237 128/149/237 100/148/237
f 5/12/238 92/121/238 128/149/238
f 128/149/239 92/121/239 23/61/239
f 100/148/240 128/149/240 64/71/240
f 49/31/241 129/151/241 89/112/241
f 12/26/242 100/148/242 129/151/242
f 129/151/243 100/148/243 30/150/243
f 89/112/244 129/151/244 72/78/244
f 9/134/245 42/15/245 130/153/245
f 6/30/246 99/143/246 130/153/246
f 130/153/247 99/143/247 24/146/247
f 130/153/248 65/59/248 27/57/248
f 15/40/249 57/46/249 131/155/249
f 57/46/250 17/8/250 94/126/250
f 94/126/251 35/128/251 80/156/251
f 131/155/252 80/156/252 33/157/252
f 3/158/253 58/5/253 132/159/253
f 58/5/254 18/1/254 98/141/254
f 98/141/255 36/47/255 81/160/255
f 132/159/256 81/160/256 21/53/256
