# Blender 4.1.1
# www.blender.org
o Turret
v -0.000000 0.000000 -0.410409
v -0.080067 0.000000 -0.402523
v -0.157057 0.000000 -0.379168
v -0.228011 0.000000 -0.341242
v -0.290203 0.000000 -0.290203
v -0.341242 0.000000 -0.228011
v -0.379168 0.000000 -0.157057
v -0.402523 0.000000 -0.080067
v -0.410409 0.000000 -0.000000
v -0.402523 0.000000 0.080067
v -0.379168 0.000000 0.157057
v -0.341242 0.000000 0.228011
v -0.290203 0.000000 0.290203
v -0.228011 0.000000 0.341242
v -0.157057 0.000000 0.379168
v -0.080067 0.000000 0.402523
v -0.000000 0.000000 0.410409
v 0.080067 0.000000 0.402523
v 0.157057 0.000000 0.379168
v 0.228011 0.000000 0.341242
v 0.290203 0.000000 0.290203
v 0.341242 0.000000 0.228011
v 0.379168 0.000000 0.157057
v 0.402523 0.000000 0.080067
v 0.410409 0.000000 -0.000000
v 0.402523 0.000000 -0.080067
v 0.379168 0.000000 -0.157057
v 0.341242 0.000000 -0.228011
v 0.290203 0.000000 -0.290203
v 0.228011 0.000000 -0.341242
v 0.157057 0.000000 -0.379168
v 0.080067 0.000000 -0.402523
v -0.000000 1.274020 -0.410409
v -0.080067 1.274020 -0.402523
v -0.157057 1.274020 -0.379168
v -0.228011 1.274020 -0.341242
v -0.290203 1.274020 -0.290203
v -0.341242 1.274020 -0.228011
v -0.379168 1.274020 -0.157057
v -0.402523 1.274020 -0.080067
v -0.410409 1.274020 -0.000000
v -0.402523 1.274020 0.080067
v -0.379168 1.274020 0.157057
v -0.341242 1.274020 0.228011
v -0.290203 1.274020 0.290203
v -0.228011 1.274020 0.341242
v -0.157057 1.274020 0.379168
v -0.080067 1.274020 0.402523
v -0.000000 1.274020 0.410409
v 0.080067 1.274020 0.402523
v 0.157057 1.274020 0.379168
v 0.228011 1.274020 0.341242
v 0.290203 1.274020 0.290203
v 0.341242 1.274020 0.228011
v 0.379168 1.274020 0.157057
v 0.402523 1.274020 0.080067
v 0.410409 1.274020 -0.000000
v 0.402523 1.274020 -0.080067
v 0.379168 1.274020 -0.157057
v 0.341242 1.274020 -0.228011
v 0.290203 1.274020 -0.290203
v 0.228011 1.274020 -0.341242
v 0.157057 1.274020 -0.379168
v 0.080067 1.274020 -0.402523
v -0.402523 0.961450 -0.080067
v -0.379168 0.961450 -0.157057
v 0.341242 0.961450 0.228011
v 0.290203 0.961450 0.290203
v -0.410409 0.961450 -0.000000
v 0.379168 0.961450 0.157057
v -0.402523 0.961450 0.080067
v 0.402523 0.961450 0.080067
v -0.379168 0.961450 0.157057
v 0.410409 0.961450 -0.000000
v -0.341242 0.961450 0.228011
v 0.402523 0.961450 -0.080067
v -0.290203 0.961450 0.290203
v 0.379168 0.961450 -0.157057
v -0.228011 0.961450 0.341242
v 0.341242 0.961450 -0.228011
v -0.157057 0.961450 0.379168
v -0.080067 0.961450 -0.402523
v -0.000000 0.961450 -0.410409
v 0.290203 0.961450 -0.290203
v -0.080067 0.961450 0.402523
v -0.157057 0.961450 -0.379168
v 0.228011 0.961450 -0.341242
v -0.000000 0.961450 0.410409
v -0.228011 0.961450 -0.341242
v 0.157057 0.961450 -0.379168
v 0.080067 0.961450 0.402523
v -0.290203 0.961450 -0.290203
v 0.080067 0.961450 -0.402523
v 0.157057 0.961450 0.379168
v -0.341242 0.961450 -0.228011
v 0.228011 0.961450 0.341242
v -0.379168 0.652837 -0.157057
v 0.290203 0.652837 0.290203
v -0.000000 0.652837 -0.410409
v -0.402523 0.652837 -0.080067
v 0.341242 0.652837 0.228011
v -0.410409 0.652837 -0.000000
v 0.379168 0.652837 0.157057
v -0.402523 0.652837 0.080067
v 0.402523 0.652837 0.080067
v -0.379168 0.652837 0.157057
v 0.410409 0.652837 -0.000000
v -0.341242 0.652837 0.228011
v 0.402523 0.652837 -0.080067
v -0.290203 0.652837 0.290203
v 0.379168 0.652837 -0.157057
v -0.228011 0.652837 0.341242
v 0.341242 0.652837 -0.228011
v -0.157057 0.652837 0.379168
v -0.080067 0.652837 -0.402523
v 0.290203 0.652837 -0.290203
v -0.080067 0.652837 0.402523
v -0.157057 0.652837 -0.379168
v 0.228011 0.652837 -0.341242
v -0.000000 0.652837 0.410409
v -0.228011 0.652837 -0.341242
v 0.157057 0.652837 -0.379168
v 0.080067 0.652837 0.402523
v -0.290203 0.652837 -0.290203
v 0.080067 0.652837 -0.402523
v 0.157057 0.652837 0.379168
v -0.341242 0.652837 -0.228011
v 0.228011 0.652837 0.341242
v 0.921526 0.961450 0.157057
v 0.944880 0.961450 0.080067
v 0.952766 0.961450 -0.000000
v 0.944880 0.961450 -0.080067
v 0.921526 0.961450 -0.157057
v 0.921526 0.652837 0.157057
v 0.944880 0.652837 0.080067
v 0.952766 0.652837 -0.000000
v 0.944880 0.652837 -0.080067
v 0.921526 0.652837 -0.157057
vn -0.0000 -1.0000 -0.0000
vn -0.0000 1.0000 -0.0000
vn -0.9569 -0.0000 -0.2903
vn 0.7730 -0.0000 0.6344
vn -0.9952 -0.0000 -0.0980
vn 0.8819 -0.0000 0.4714
vn -0.9952 -0.0000 0.0980
vn 0.9569 -0.0000 0.2903
vn -0.9569 -0.0000 0.2903
vn 0.9952 -0.0000 0.0980
vn -0.8819 -0.0000 0.4714
vn 0.9952 -0.0000 -0.0980
vn -0.7730 -0.0000 0.6344
vn 0.9569 -0.0000 -0.2903
vn -0.6344 -0.0000 0.7730
vn 0.8819 -0.0000 -0.4714
vn -0.4714 -0.0000 0.8819
vn -0.0980 -0.0000 -0.9952
vn 0.7730 -0.0000 -0.6344
vn -0.2903 -0.0000 0.9569
vn -0.2903 -0.0000 -0.9569
vn 0.6344 -0.0000 -0.7730
vn -0.0980 -0.0000 0.9952
vn -0.4714 -0.0000 -0.8819
vn 0.4714 -0.0000 -0.8819
vn 0.0980 -0.0000 0.9952
vn -0.6344 -0.0000 -0.7730
vn 0.2903 -0.0000 -0.9569
vn 0.2903 -0.0000 0.9569
vn -0.7730 -0.0000 -0.6344
vn 0.0980 -0.0000 -0.9952
vn 0.4714 -0.0000 0.8819
vn -0.8819 -0.0000 -0.4714
vn 0.6344 -0.0000 0.7730
vn -0.0000 -0.0000 -1.0000
vn -0.0000 -0.0000 1.0000
s 0
f 19//1 11//1 3//1
f 49//2 57//2 33//2
f 65//3 39//3 66//3
f 67//4 53//4 68//4
f 69//5 40//5 65//5
f 70//6 54//6 67//6
f 71//7 41//7 69//7
f 72//8 55//8 70//8
f 73//9 42//9 71//9
f 74//10 56//10 72//10
f 75//11 43//11 73//11
f 76//12 57//12 74//12
f 77//13 44//13 75//13
f 78//14 58//14 76//14
f 79//15 45//15 77//15
f 80//16 59//16 78//16
f 81//17 46//17 79//17
f 82//18 33//18 83//18
f 84//19 60//19 80//19
f 85//20 47//20 81//20
f 86//21 34//21 82//21
f 87//22 61//22 84//22
f 88//23 48//23 85//23
f 89//24 35//24 86//24
f 90//25 62//25 87//25
f 91//26 49//26 88//26
f 92//27 36//27 89//27
f 93//28 63//28 90//28
f 94//29 50//29 91//29
f 95//30 37//30 92//30
f 83//31 64//31 93//31
f 96//32 51//32 94//32
f 66//33 38//33 95//33
f 68//34 52//34 96//34
f 98//34 96//34 128//34
f 97//33 95//33 127//33
f 128//32 94//32 126//32
f 99//31 93//31 125//31
f 127//30 92//30 124//30
f 126//29 91//29 123//29
f 125//28 90//28 122//28
f 124//27 89//27 121//27
f 123//26 88//26 120//26
f 122//25 87//25 119//25
f 121//24 86//24 118//24
f 120//23 85//23 117//23
f 119//22 84//22 116//22
f 118//21 82//21 115//21
f 117//20 81//20 114//20
f 116//19 80//19 113//19
f 115//18 83//18 99//18
f 114//17 79//17 112//17
f 113//16 78//16 111//16
f 112//15 77//15 110//15
f 74//2 132//2 76//2
f 110//13 75//13 108//13
f 107//1 137//1 136//1
f 108//11 73//11 106//11
f 78//35 138//35 111//35
f 106//9 71//9 104//9
f 105//1 134//1 103//1
f 104//7 69//7 102//7
f 103//6 67//6 101//6
f 102//5 65//5 100//5
f 101//4 68//4 98//4
f 100//3 66//3 97//3
f 8//3 97//3 7//3
f 22//4 98//4 21//4
f 9//5 100//5 8//5
f 23//6 101//6 22//6
f 10//7 102//7 9//7
f 24//8 103//8 23//8
f 11//9 104//9 10//9
f 25//10 105//10 24//10
f 12//11 106//11 11//11
f 26//12 107//12 25//12
f 13//13 108//13 12//13
f 27//14 109//14 26//14
f 14//15 110//15 13//15
f 28//16 111//16 27//16
f 15//17 112//17 14//17
f 2//18 99//18 1//18
f 29//19 113//19 28//19
f 16//20 114//20 15//20
f 3//21 115//21 2//21
f 30//22 116//22 29//22
f 17//23 117//23 16//23
f 4//24 118//24 3//24
f 31//25 119//25 30//25
f 18//26 120//26 17//26
f 5//27 121//27 4//27
f 32//28 122//28 31//28
f 19//29 123//29 18//29
f 6//30 124//30 5//30
f 1//31 125//31 32//31
f 20//32 126//32 19//32
f 7//33 127//33 6//33
f 21//34 128//34 20//34
f 138//14 132//14 137//14
f 137//12 131//12 136//12
f 136//10 130//10 135//10
f 135//8 129//8 134//8
f 72//2 129//2 130//2
f 107//1 135//1 105//1
f 76//2 133//2 78//2
f 109//1 138//1 137//1
f 74//2 130//2 131//2
f 103//36 129//36 70//36
f 3//1 2//1 1//1
f 1//1 32//1 31//1
f 31//1 30//1 29//1
f 29//1 28//1 27//1
f 27//1 26//1 25//1
f 25//1 24//1 23//1
f 23//1 22//1 21//1
f 21//1 20//1 19//1
f 19//1 18//1 17//1
f 17//1 16//1 15//1
f 15//1 14//1 13//1
f 13//1 12//1 11//1
f 11//1 10//1 9//1
f 9//1 8//1 7//1
f 7//1 6//1 5//1
f 5//1 4//1 3//1
f 3//1 1//1 31//1
f 31//1 29//1 27//1
f 27//1 25//1 23//1
f 23//1 21//1 19//1
f 19//1 17//1 15//1
f 15//1 13//1 11//1
f 11//1 9//1 7//1
f 7//1 5//1 3//1
f 3//1 31//1 27//1
f 27//1 23//1 19//1
f 19//1 15//1 11//1
f 11//1 7//1 3//1
f 3//1 27//1 19//1
f 33//2 34//2 35//2
f 35//2 36//2 37//2
f 37//2 38//2 39//2
f 39//2 40//2 41//2
f 41//2 42//2 43//2
f 43//2 44//2 45//2
f 45//2 46//2 47//2
f 47//2 48//2 49//2
f 49//2 50//2 51//2
f 51//2 52//2 53//2
f 53//2 54//2 55//2
f 55//2 56//2 57//2
f 57//2 58//2 59//2
f 59//2 60//2 61//2
f 61//2 62//2 63//2
f 63//2 64//2 33//2
f 33//2 35//2 37//2
f 37//2 39//2 41//2
f 41//2 43//2 45//2
f 45//2 47//2 49//2
f 49//2 51//2 53//2
f 53//2 55//2 57//2
f 57//2 59//2 61//2
f 61//2 63//2 33//2
f 33//2 37//2 41//2
f 41//2 45//2 49//2
f 49//2 53//2 57//2
f 57//2 61//2 33//2
f 33//2 41//2 49//2
f 65//3 40//3 39//3
f 67//4 54//4 53//4
f 69//5 41//5 40//5
f 70//6 55//6 54//6
f 71//7 42//7 41//7
f 72//8 56//8 55//8
f 73//9 43//9 42//9
f 74//10 57//10 56//10
f 75//11 44//11 43//11
f 76//12 58//12 57//12
f 77//13 45//13 44//13
f 78//14 59//14 58//14
f 79//15 46//15 45//15
f 80//16 60//16 59//16
f 81//17 47//17 46//17
f 82//18 34//18 33//18
f 84//19 61//19 60//19
f 85//20 48//20 47//20
f 86//21 35//21 34//21
f 87//22 62//22 61//22
f 88//23 49//23 48//23
f 89//24 36//24 35//24
f 90//25 63//25 62//25
f 91//26 50//26 49//26
f 92//27 37//27 36//27
f 93//28 64//28 63//28
f 94//29 51//29 50//29
f 95//30 38//30 37//30
f 83//31 33//31 64//31
f 96//32 52//32 51//32
f 66//33 39//33 38//33
f 68//34 53//34 52//34
f 98//34 68//34 96//34
f 97//33 66//33 95//33
f 128//32 96//32 94//32
f 99//31 83//31 93//31
f 127//30 95//30 92//30
f 126//29 94//29 91//29
f 125//28 93//28 90//28
f 124//27 92//27 89//27
f 123//26 91//26 88//26
f 122//25 90//25 87//25
f 121//24 89//24 86//24
f 120//23 88//23 85//23
f 119//22 87//22 84//22
f 118//21 86//21 82//21
f 117//20 85//20 81//20
f 116//19 84//19 80//19
f 115//18 82//18 83//18
f 114//17 81//17 79//17
f 113//16 80//16 78//16
f 112//15 79//15 77//15
f 74//2 131//2 132//2
f 110//13 77//13 75//13
f 107//1 109//1 137//1
f 108//11 75//11 73//11
f 78//35 133//35 138//35
f 106//9 73//9 71//9
f 105//1 135//1 134//1
f 104//7 71//7 69//7
f 103//6 70//6 67//6
f 102//5 69//5 65//5
f 101//4 67//4 68//4
f 100//3 65//3 66//3
f 8//3 100//3 97//3
f 22//4 101//4 98//4
f 9//5 102//5 100//5
f 23//6 103//6 101//6
f 10//7 104//7 102//7
f 24//8 105//8 103//8
f 11//9 106//9 104//9
f 25//10 107//10 105//10
f 12//11 108//11 106//11
f 26//12 109//12 107//12
f 13//13 110//13 108//13
f 27//14 111//14 109//14
f 14//15 112//15 110//15
f 28//16 113//16 111//16
f 15//17 114//17 112//17
f 2//18 115//18 99//18
f 29//19 116//19 113//19
f 16//20 117//20 114//20
f 3//21 118//21 115//21
f 30//22 119//22 116//22
f 17//23 120//23 117//23
f 4//24 121//24 118//24
f 31//25 122//25 119//25
f 18//26 123//26 120//26
f 5//27 124//27 121//27
f 32//28 125//28 122//28
f 19//29 126//29 123//29
f 6//30 127//30 124//30
f 1//31 99//31 125//31
f 20//32 128//32 126//32
f 7//33 97//33 127//33
f 21//34 98//34 128//34
f 138//14 133//14 132//14
f 137//12 132//12 131//12
f 136//10 131//10 130//10
f 135//8 130//8 129//8
f 72//2 70//2 129//2
f 107//1 136//1 135//1
f 76//2 132//2 133//2
f 109//1 111//1 138//1
f 74//2 72//2 130//2
f 103//36 134//36 129//36
